<svg id="Calque_1" data-name="Calque 1" xmlns="http://www.w3.org/2000/svg" viewBox="0 0 368.13473 75.48182">
  <defs>
    <style>
      .cls-1 {
        fill: #0f0f0f;
      }

      .cls-2 {
        fill: #73c6cb;
      }
    </style>
  </defs>
  <title>logoFR</title>
  <path class="cls-1" d="M27.11181,28.32178H14.07763l-2.30273,5.978H.01464L15.00878,0H26.377L41.3706,34.2998H29.415ZM23.92675,19.9917l-3.332-8.624-3.332,8.624Z" transform="translate(0)"/>
  <path class="cls-1" d="M43.2329,0h11.564V25.333H70.28081v8.9668H43.2329Z" transform="translate(0)"/>
  <path d="M97.32812,28.32178H84.29394l-2.30273,5.978H70.231L85.22509,0H96.59325L111.5869,34.2998H99.63134ZM94.14306,19.9917l-3.332-8.624-3.332,8.624Z" transform="translate(0)"/>
  <path class="cls-2" d="M113.44921,0h11.564V34.2998h-11.564Z" transform="translate(0)"/>
  <path class="cls-1" d="M164.40868,0V34.2998h-9.50586l-13.03418-15.582v15.582h-11.27V0h9.50586l13.03418,15.582V0Z" transform="translate(0)"/>
  <path class="cls-1" d="M9.31,73.19971A17.027,17.027,0,0,1,2.4746,66.83008a18.65893,18.65893,0,0,1,0-18.57129A17.03166,17.03166,0,0,1,9.31,41.88867a20.83866,20.83866,0,0,1,9.7998-2.27832,21.51414,21.51414,0,0,1,8.91846,1.76416,16.55483,16.55483,0,0,1,6.46777,5.0957L27.1953,52.9873q-3.186-4.01733-7.49707-4.01807a7.65839,7.65839,0,0,0-5.831,2.32764,9.953,9.953,0,0,0,0,12.49512,7.65638,7.65638,0,0,0,5.831,2.32715q4.311,0,7.49707-4.01758l7.30078,6.5166a16.54735,16.54735,0,0,1-6.46777,5.09619,21.52228,21.52228,0,0,1-8.91846,1.76416A20.83971,20.83971,0,0,1,9.31,73.19971Z" transform="translate(0)"/>
  <path d="M45.1289,73.17529a17.583,17.583,0,0,1,0-31.26172,22.631,22.631,0,0,1,19.894,0,17.58377,17.58377,0,0,1,0,31.26172A22.63074,22.63074,0,0,1,45.1289,73.17529Zm13.84229-8.10937a7.54216,7.54216,0,0,0,2.76855-2.98926,10.49407,10.49407,0,0,0,0-9.06494A7.55051,7.55051,0,0,0,58.97119,50.023a7.72772,7.72772,0,0,0-7.791,0,7.54712,7.54712,0,0,0-2.76855,2.98877,10.49849,10.49849,0,0,0,0,9.06494,7.539,7.539,0,0,0,2.76855,2.98926A7.73065,7.73065,0,0,0,58.97119,65.06593Z" transform="translate(0)"/>
  <path class="cls-1" d="M78.64452,40.39453h11.564v25.333h15.48383v8.9668H78.64452Z" transform="translate(0)"/>
  <path class="cls-1" d="M139.502,74.69434l-.09814-15.63086-7.44775,12.544H126.8599l-7.44775-12.00488v15.0918H108.877V40.39453h9.50586l11.17236,18.27686,10.87793-18.27686H149.939l.09814,34.2998Z" transform="translate(0)"/>
  <path class="cls-1" d="M184.14062,65.97217v8.72217H155.62255V40.39453h27.88086v8.72168h-16.5127v4.01807h14.50391v8.33008H166.99071v4.50781Z" transform="translate(0)"/>
  <path class="cls-1" d="M203.29931,66.07031h-3.13623v8.624h-11.564V40.39453h16.51318A20.25439,20.25439,0,0,1,213.393,41.9624a12.677,12.677,0,0,1,6.17767,16.8299q-.22632.48889-.49359.95721a11.76845,11.76845,0,0,1-4.80176,4.36084l7.20264,10.584H209.13042Zm4.606-15.70459A5.14664,5.14664,0,0,0,204.377,49.3125h-4.21387v8.03564H204.377a5.14429,5.14429,0,0,0,3.52832-1.05322,4.36044,4.36044,0,0,0,0-5.9292Z" transform="translate(0)"/>
  <path class="cls-2" d="M248.477,68.71631H235.44286l-2.30273,5.978H221.37987L236.374,40.39453h11.36816l14.99365,34.2998H250.78026Zm-3.185-8.33008-3.332-8.624-3.332,8.624Z" transform="translate(0)"/>
  <path class="cls-1" d="M267.97948,71.21533q-4.40991-4.26271-4.41016-11.95605V40.39453h11.564v18.522q0,3.77344,1.34766,5.48779a5.282,5.282,0,0,0,7.46265.32837q.1713-.15692.32837-.32837,1.34692-1.71461,1.34717-5.48779v-18.522h11.36816V59.25928q0,7.69337-4.41016,11.95605-4.40991,4.26271-12.29883,4.26318Q272.38865,75.47853,267.97948,71.21533Z" transform="translate(0)"/>
  <path class="cls-1" d="M330.79741,65.97217v8.72217H302.27929V40.39453h27.88086v8.72168h-16.5127v4.01807h14.504v8.33008h-14.504v4.50781Z" transform="translate(0)"/>
  <path class="cls-1" d="M349.956,66.07031h-3.13623v8.624h-11.564V40.39453H351.769a20.25437,20.25437,0,0,1,8.28076,1.56787,12.677,12.677,0,0,1,6.17767,16.8299q-.22632.4889-.49359.95721a11.76863,11.76863,0,0,1-4.80176,4.36084l7.20264,10.584h-12.3476Zm4.606-15.70459a5.14666,5.14666,0,0,0-3.52832-1.05322h-4.21387v8.03564h4.21387a5.14426,5.14426,0,0,0,3.52832-1.05322,4.31693,4.31693,0,0,0,0-5.92921Z" transform="translate(0)"/>
</svg>
