<svg id="Capa_1" data-name="Capa 1" xmlns="http://www.w3.org/2000/svg" viewBox="0 0 77.99845 51.99998">
  <defs>
    <style>
      .cls-1 {
        fill: #f0f0f0;
      }

      .cls-2 {
        fill: #ff2c2c;
      }

      .cls-3 {
        fill: #1d86dd;
      }
    </style>
  </defs>
  <title>ukFlag</title>
  <rect class="cls-1" y="0.00046" width="77.99845" height="51.99953"/>
  <polygon class="cls-2" points="43.874 0 34.124 0 34.124 21.124 0 21.124 0 30.874 34.124 30.874 34.124 51.999 43.874 51.999 43.874 30.874 77.998 30.874 77.998 21.124 43.874 21.124 43.874 0"/>
  <g>
    <polygon class="cls-3" points="59.989 35.043 77.998 45.048 77.998 35.043 59.989 35.043"/>
    <polygon class="cls-3" points="47.477 35.043 77.998 51.999 77.998 47.204 56.108 35.043 47.477 35.043"/>
    <polygon class="cls-3" points="69.869 51.999 47.477 39.558 47.477 51.999 69.869 51.999"/>
  </g>
  <polygon class="cls-1" points="47.477 35.043 77.998 51.999 77.998 47.204 56.108 35.043 47.477 35.043"/>
  <polygon class="cls-2" points="47.477 35.043 77.998 51.999 77.998 47.204 56.108 35.043 47.477 35.043"/>
  <g>
    <polygon class="cls-3" points="13.763 35.042 0 42.688 0 35.042 13.763 35.042"/>
    <polygon class="cls-3" points="30.521 37.199 30.521 51.999 3.883 51.999 30.521 37.199"/>
  </g>
  <polygon class="cls-2" points="21.89 35.043 0 47.204 0 51.999 0 51.999 30.521 35.043 21.89 35.043"/>
  <g>
    <polygon class="cls-3" points="18.009 16.956 0 6.951 0 16.956 18.009 16.956"/>
    <polygon class="cls-3" points="30.521 16.956 0 0 0 4.795 21.89 16.956 30.521 16.956"/>
    <polygon class="cls-3" points="8.13 0 30.521 12.441 30.521 0 8.13 0"/>
  </g>
  <polygon class="cls-1" points="30.521 16.956 0 0 0 4.795 21.89 16.956 30.521 16.956"/>
  <polygon class="cls-2" points="30.521 16.956 0 0 0 4.795 21.89 16.956 30.521 16.956"/>
  <g>
    <polygon class="cls-3" points="64.236 16.956 77.998 9.31 77.998 16.956 64.236 16.956"/>
    <polygon class="cls-3" points="47.477 14.8 47.477 0 74.115 0 47.477 14.8"/>
  </g>
  <polygon class="cls-2" points="56.108 16.956 77.998 4.795 77.998 0 77.998 0 47.477 16.956 56.108 16.956"/>
</svg>
